<svg version="1.1" viewBox="0.0 0.0 672.0 672.0" fill="none" stroke="none" stroke-linecap="square" stroke-miterlimit="10" xmlns:xlink="http://www.w3.org/1999/xlink" xmlns="http://www.w3.org/2000/svg"><clipPath id="p.0"><path d="m0 0l672.0 0l0 672.0l-672.0 0l0 -672.0z" clip-rule="nonzero"/></clipPath><g clip-path="url(#p.0)"><path fill="#000000" fill-opacity="0.0" d="m0 0l672.0 0l0 672.0l-672.0 0z" fill-rule="evenodd"/><defs><linearGradient id="p.1" gradientUnits="userSpaceOnUse" gradientTransform="matrix(25.923009714106552 0.0 0.0 25.923009714106552 0.0 0.0)" spreadMethod="pad" x1="3.3969944686772593E-10" y1="-9.384069545238827E-5" x2="-9.384069545238827E-5" y2="25.922915873241255"><stop offset="0.0" stop-color="#6aa84f"/><stop offset="1.0" stop-color="#00ff00"/></linearGradient></defs><path fill="url(#p.1)" d="m0 336.0l0 0c0 -185.56767 150.43233 -336.0 336.0 -336.0l0 0c89.11273 0 174.57565 35.3999 237.58789 98.412125c63.012207 63.012222 98.41211 148.47513 98.41211 237.58788l0 0c0 185.56769 -150.43231 336.0 -336.0 336.0l0 0c-185.56767 0 -336.0 -150.43231 -336.0 -336.0z" fill-rule="evenodd"/><g filter="url(#shadowFilter-p.2)"><use xlink:href="#p.2" transform="matrix(1.0 0.0 0.0 1.0 0.0 14.0)"/></g><defs><filter id="shadowFilter-p.2" filterUnits="userSpaceOnUse"><feGaussianBlur in="SourceAlpha" stdDeviation="0.0" result="blur"/><feComponentTransfer in="blur" color-interpolation-filters="sRGB"><feFuncR type="linear" slope="0" intercept="0.0"/><feFuncG type="linear" slope="0" intercept="0.0"/><feFuncB type="linear" slope="0" intercept="0.0"/><feFuncA type="linear" slope="0.5" intercept="0"/></feComponentTransfer></filter></defs><g id="p.2"><path fill="#ffffff" d="m114.59318 204.29659l101.21259 0l101.2126 131.70079l-101.2126 131.70078l-101.21259 0l101.21259 -131.70078z" fill-rule="evenodd"/></g><g filter="url(#shadowFilter-p.3)"><use xlink:href="#p.3" transform="matrix(1.0 0.0 0.0 1.0 0.0 14.0)"/></g><defs><filter id="shadowFilter-p.3" filterUnits="userSpaceOnUse"><feGaussianBlur in="SourceAlpha" stdDeviation="0.0" result="blur"/><feComponentTransfer in="blur" color-interpolation-filters="sRGB"><feFuncR type="linear" slope="0" intercept="0.0"/><feFuncG type="linear" slope="0" intercept="0.0"/><feFuncB type="linear" slope="0" intercept="0.0"/><feFuncA type="linear" slope="0.5" intercept="0"/></feComponentTransfer></filter></defs><g id="p.3"><path fill="#ffffff" d="m328.5223 410.75854l228.88187 0l0 56.944855l-228.88187 0z" fill-rule="evenodd"/></g></g></svg>