<svg version="1.1" viewBox="0.0 0.0 960.0 960.0" fill="none" stroke="none" stroke-linecap="square" stroke-miterlimit="10" xmlns:xlink="http://www.w3.org/1999/xlink" xmlns="http://www.w3.org/2000/svg"><clipPath id="p.0"><path d="m0 0l960.0 0l0 960.0l-960.0 0l0 -960.0z" clip-rule="nonzero"/></clipPath><g clip-path="url(#p.0)"><path fill="#000000" fill-opacity="0.0" d="m0 0l960.0 0l0 960.0l-960.0 0z" fill-rule="evenodd"/><path fill="#674ea7" d="m-0.005249344 960.0131l0 -960.0l960.0 960.0z" fill-rule="evenodd"/><path fill="#351c75" d="m959.99475 0.0131233595l0 960.0l-960.0 -960.0z" fill-rule="evenodd"/><path fill="#ffffff" d="m191.99475 480.01312l0 0c0 -159.05801 128.94199 -288.0 288.0 -288.0l0 0c76.382324 0 149.63629 30.342773 203.64673 84.35324c54.010498 54.010498 84.35327 127.264404 84.35327 203.64676l0 0c0 159.05798 -128.94202 288.0 -288.0 288.0l0 0c-159.05801 0 -288.0 -128.94202 -288.0 -288.0zm40.5504 0l0 0c0 136.66266 110.78697 247.44958 247.4496 247.44958c136.66266 0 247.44958 -110.78693 247.44958 -247.44958l0 0c0 -136.66263 -110.78693 -247.4496 -247.44958 -247.4496l0 0c-136.66263 0 -247.4496 110.78697 -247.4496 247.4496z" fill-rule="evenodd"/><path stroke="#ffffff" stroke-width="24.0" stroke-linejoin="round" stroke-linecap="butt" d="m191.99475 480.01312l0 0c0 -159.05801 128.94199 -288.0 288.0 -288.0l0 0c76.382324 0 149.63629 30.342773 203.64673 84.35324c54.010498 54.010498 84.35327 127.264404 84.35327 203.64676l0 0c0 159.05798 -128.94202 288.0 -288.0 288.0l0 0c-159.05801 0 -288.0 -128.94202 -288.0 -288.0zm40.5504 0l0 0c0 136.66266 110.78697 247.44958 247.4496 247.44958c136.66266 0 247.44958 -110.78693 247.44958 -247.44958l0 0c0 -136.66263 -110.78693 -247.4496 -247.44958 -247.4496l0 0c-136.66263 0 -247.4496 110.78697 -247.4496 247.4496z" fill-rule="evenodd"/><path fill="#ffffff" d="m209.75853 393.65353l0 0c0 -20.51715 16.632446 -37.149597 37.149612 -37.149597l211.40158 0c9.852692 0 19.301819 3.913971 26.268738 10.880859c6.9668884 6.966919 10.880859 16.416046 10.880859 26.268738l0 0l0 0c0 20.517181 -16.632446 37.149628 -37.149597 37.149628l-211.40158 0l0 0c-20.517166 0 -37.149612 -16.632446 -37.149612 -37.149628z" fill-rule="evenodd"/><path fill="#ffffff" d="m467.18634 535.36743l0 0c0 -20.51715 16.632446 -37.149597 37.149628 -37.149597l211.40158 0c9.852661 0 19.301819 3.913971 26.268738 10.88089c6.966858 6.9668884 10.880859 16.416046 10.880859 26.268707l0 0l0 0c0 20.517212 -16.632446 37.14966 -37.149597 37.14966l-211.40158 0l0 0c-20.517181 0 -37.149628 -16.632446 -37.149628 -37.14966z" fill-rule="evenodd"/><path fill="#ffffff" d="m548.89764 579.6667l0 0c0 -20.51715 16.632446 -37.149597 37.149597 -37.149597l103.40155 0l0 0c9.852722 0 19.30188 3.9139404 26.268738 10.880859c6.966919 6.966858 10.88092 16.416016 10.88092 26.268738l0 0l0 0c0 20.51715 -16.632446 37.149597 -37.14966 37.149597l-103.40155 0c-20.51715 0 -37.149597 -16.632446 -37.149597 -37.149597z" fill-rule="evenodd"/><path fill="#ffffff" d="m199.18373 432.8084l0 0c0 -20.517181 16.632446 -37.149628 37.149597 -37.149628l103.401566 0l0 0c9.852692 0 19.30185 3.913971 26.268738 10.88089c6.966919 6.9668884 10.88089 16.416046 10.88089 26.268738l0 0l0 0c0 20.51715 -16.632446 37.149597 -37.149628 37.149597l-103.401566 0c-20.51715 0 -37.149597 -16.632446 -37.149597 -37.149597z" fill-rule="evenodd"/></g></svg>